<?xml version="1.0" encoding="UTF-8" standalone="no"?><!DOCTYPE svg PUBLIC "-//W3C//DTD SVG 1.1//EN" "http://www.w3.org/Graphics/SVG/1.1/DTD/svg11.dtd"><svg width="100%" height="100%" viewBox="0 0 2751 1600" version="1.1" xmlns="http://www.w3.org/2000/svg" xmlns:xlink="http://www.w3.org/1999/xlink" xml:space="preserve" xmlns:serif="http://www.serif.com/" style="fill-rule:evenodd;clip-rule:evenodd;stroke-linecap:round;stroke-linejoin:round;stroke-miterlimit:1.5;"><path d="M0,1172.4c-0,-0 3.45,18.52 8.179,43.906c17.712,95.076 47.418,187.519 88.405,275.115c9.098,19.445 15.484,33.092 15.484,33.092" style="fill:#fff;"/><path d="M2639.24,332.203l-903.663,287.857l112.155,352.085l903.663,-287.857l-112.155,-352.085Z" style="fill:#fff;"/><g><path d="M1550.08,37.739c420.704,-134.012 871.062,98.744 1005.08,519.447c134.013,420.703 -98.744,871.062 -519.447,1005.08c-420.703,134.012 -871.062,-98.744 -1005.07,-519.447c-134.013,-420.703 98.743,-871.062 519.446,-1005.08Zm89.842,282.037c265.043,-84.428 548.769,62.208 633.197,327.251c84.428,265.043 -62.209,548.769 -327.252,633.197c-265.043,84.428 -548.769,-62.208 -633.197,-327.251c-84.428,-265.043 62.209,-548.769 327.252,-633.197Z" style="fill:#ff1616;"/><g transform="matrix(0.952826,-0.303517,0.303517,0.952826,864.711,307.841)"><g transform="matrix(0.654788,0.755812,-0.755812,0.654788,947.823,308.633)"><text x="136.048px" y="1191.91px" style="font-family:'Istanbul', fantasy;font-size:226.795px;fill:#fff;">T</text></g><g transform="matrix(0.871904,0.489677,-0.489677,0.871904,708.702,24.7835)"><text x="306.98px" y="1366.98px" style="font-family:'Istanbul', fantasy;font-size:226.795px;fill:#fff;">R</text></g><g transform="matrix(0.992169,0.124906,-0.124906,0.992169,189.589,-56.8069)"><text x="547.809px" y="1483.5px" style="font-family:'Istanbul', fantasy;font-size:226.795px;fill:#fff;">A</text></g><g transform="matrix(0.969095,-0.246686,0.246686,0.969095,-343.622,253.201)"><text x="838.738px" y="1498.03px" style="font-family:'Istanbul', fantasy;font-size:226.795px;fill:#fff;">F</text></g><g transform="matrix(0.855557,-0.517708,0.517708,0.855557,-578.588,761.251)"><text x="1074.93px" y="1417.51px" style="font-family:'Istanbul', fantasy;font-size:226.795px;fill:#fff;">I</text></g><g transform="matrix(0.662058,-0.749452,0.749452,0.662058,-575.72,1361.99)"><text x="1222.38px" y="1319.38px" style="font-family:'Istanbul', fantasy;font-size:226.795px;fill:#fff;">K</text></g></g><g transform="matrix(0.952826,-0.303517,0.303517,0.952826,666.872,218.045)"><g transform="matrix(0.826002,-0.563667,0.563667,0.826002,-175.535,373.703)"><text x="517.54px" y="471.175px" style="font-family:'Istanbul', fantasy;font-size:226.795px;fill:#fff;">T</text></g><g transform="matrix(0.956853,-0.290573,0.290573,0.956853,-84.0471,202.276)"><text x="639.084px" y="384.143px" style="font-family:'Istanbul', fantasy;font-size:226.795px;fill:#fff;">A</text></g><g transform="matrix(0.999717,0.0237791,-0.0237791,0.999717,8.07664,-19.5787)"><text x="827.283px" y="329.816px" style="font-family:'Istanbul', fantasy;font-size:226.795px;fill:#fff;">B</text></g><g transform="matrix(0.944391,0.328823,-0.328823,0.944391,163.843,-307.108)"><text x="989.914px" y="330.864px" style="font-family:'Istanbul', fantasy;font-size:226.795px;fill:#fff;">A</text></g><g transform="matrix(0.787579,0.616214,-0.616214,0.787579,494.013,-639.266)"><text x="1174.23px" y="396.91px" style="font-family:'Istanbul', fantasy;font-size:226.795px;fill:#fff;">K</text></g></g></g><path d="M1735.58,620.06l-1735.43,552.81l112.155,352.086l1735.43,-552.811l-112.155,-352.085Z" style="fill:#fff;stroke:#000;stroke-opacity:0;stroke-width:1px;"/><path d="M1752.83,615.078l-29.466,9.386l111.856,351.149l29.467,-9.387l-111.857,-351.148Z" style="fill:#fff;"/><path d="M2751.39,684.288c-0,0 -3.45,-18.52 -8.18,-43.906c-17.712,-95.076 -47.417,-187.519 -88.404,-275.115c-9.099,-19.445 -15.484,-33.092 -15.484,-33.092" style="fill:#fff;"/><g transform="matrix(0.952826,-0.303517,0.303517,0.952826,-242.885,-138.491)"><text x="-74.7px" y="1600.21px" style="font-family:'Istanbul', fantasy;font-size:247.021px;">MITTERLEHNER</text></g><path d="M2180.9,478.205l-2180.75,694.665c19.775,124.37 57.079,241.764 112.155,352.086l2183.82,-695.646" style="fill:none;stroke:#000;stroke-width:2px;"/><path d="M2476.44,384.062l162.888,-51.586c58.173,112.523 93.997,230.143 112.068,351.812l-160.955,51.272" style="fill:none;stroke:#000;stroke-width:2px;"/></svg>