<?xml version="1.0" encoding="UTF-8" standalone="no"?><!DOCTYPE svg PUBLIC "-//W3C//DTD SVG 1.1//EN" "http://www.w3.org/Graphics/SVG/1.1/DTD/svg11.dtd"><svg width="100%" height="100%" viewBox="0 0 2751 1600" version="1.1" xmlns="http://www.w3.org/2000/svg" xmlns:xlink="http://www.w3.org/1999/xlink" xml:space="preserve" xmlns:serif="http://www.serif.com/" style="fill-rule:evenodd;clip-rule:evenodd;stroke-linecap:round;stroke-linejoin:round;stroke-miterlimit:1.5;"><path d="M0,1172.4c-0,-0 3.45,18.52 8.179,43.906c17.712,95.076 47.418,187.519 88.405,275.115c9.098,19.445 15.484,33.092 15.484,33.092" style="fill:#fff;"/><path d="M2639.24,332.203l-903.663,287.857l112.155,352.085l903.663,-287.857l-112.155,-352.085Z" style="fill:#fff;"/><g><path d="M1550.08,37.739c420.704,-134.012 871.062,98.744 1005.08,519.447c134.013,420.703 -98.744,871.062 -519.447,1005.08c-420.703,134.012 -871.062,-98.744 -1005.07,-519.447c-134.013,-420.703 98.743,-871.062 519.446,-1005.08Zm89.842,282.037c265.043,-84.428 548.769,62.208 633.197,327.251c84.428,265.043 -62.209,548.769 -327.252,633.197c-265.043,84.428 -548.769,-62.208 -633.197,-327.251c-84.428,-265.043 62.209,-548.769 327.252,-633.197Z" style="fill:#ff1616;"/></g><path d="M1735.58,620.06l-1735.43,552.81l112.155,352.086l1735.43,-552.811l-112.155,-352.085Z" style="fill:#fff;stroke:#000;stroke-opacity:0;stroke-width:1px;"/><path d="M1752.83,615.078l-29.466,9.386l111.856,351.149l29.467,-9.387l-111.857,-351.148Z" style="fill:#fff;"/><path d="M2751.39,684.288c-0,0 -3.45,-18.52 -8.18,-43.906c-17.712,-95.076 -47.417,-187.519 -88.404,-275.115c-9.099,-19.445 -15.484,-33.092 -15.484,-33.092" style="fill:#fff;"/><path d="M2180.9,478.205l-2180.75,694.665c19.775,124.37 57.079,241.764 112.155,352.086l2183.82,-695.646" style="fill:none;stroke:#000;stroke-width:2px;"/><path d="M2476.44,384.062l162.888,-51.586c58.173,112.523 93.997,230.143 112.068,351.812l-160.955,51.272" style="fill:none;stroke:#000;stroke-width:2px;"/></svg>